<svg xmlns="http://www.w3.org/2000/svg" viewBox="0 0 1256 1232" fill="currentColor" role="img" aria-label="Kiny K">
  <path d="M 0.0 4.0 L 274.0 5.0 L 274.0 9.0 L 271.0 11.0 L 226.0 19.0 L 205.0 31.0 L 195.0 42.0 L 187.0 56.0 L 179.0 85.0 L 175.0 146.0 L 175.0 576.0 L 177.0 579.0 L 184.0 574.0 L 236.0 513.0 L 527.0 194.0 L 580.0 130.0 L 595.0 108.0 L 604.0 92.0 L 611.0 70.0 L 612.0 55.0 L 608.0 42.0 L 591.0 24.0 L 571.0 16.0 L 540.0 11.0 L 537.0 8.0 L 538.0 5.0 L 834.0 5.0 L 835.0 8.0 L 832.0 11.0 L 786.0 20.0 L 728.0 47.0 L 693.0 71.0 L 653.0 104.0 L 520.0 237.0 L 352.0 417.0 L 287.0 489.0 L 286.0 493.0 L 288.0 495.0 L 324.0 497.0 L 360.0 512.0 L 399.0 540.0 L 431.0 572.0 L 475.0 626.0 L 620.0 836.0 L 706.0 951.0 L 735.0 986.0 L 801.0 1055.0 L 828.0 1079.0 L 881.0 1120.0 L 940.0 1156.0 L 984.0 1176.0 L 1033.0 1192.0 L 1076.0 1200.0 L 1125.0 1202.0 L 1161.0 1199.0 L 1207.0 1188.0 L 1227.0 1180.0 L 1247.0 1168.0 L 1251.0 1170.0 L 1251.0 1174.0 L 1212.0 1199.0 L 1187.0 1210.0 L 1158.0 1219.0 L 1089.0 1231.0 L 1021.0 1231.0 L 1015.0 1228.0 L 990.0 1226.0 L 948.0 1218.0 L 881.0 1199.0 L 813.0 1171.0 L 761.0 1143.0 L 706.0 1107.0 L 669.0 1078.0 L 625.0 1039.0 L 580.0 992.0 L 501.0 895.0 L 436.0 801.0 L 356.0 676.0 L 311.0 613.0 L 292.0 590.0 L 267.0 567.0 L 255.0 559.0 L 235.0 554.0 L 228.0 555.0 L 211.0 573.0 L 183.0 606.0 L 175.0 619.0 L 175.0 919.0 L 177.0 955.0 L 183.0 992.0 L 187.0 1003.0 L 205.0 1027.0 L 229.0 1040.0 L 280.0 1047.0 L 283.0 1051.0 L 278.0 1055.0 L 0.0 1055.0 L 0.0 1032.0 L 19.0 1014.0 L 32.0 984.0 L 38.0 926.0 L 38.0 165.0 L 36.0 108.0 L 32.0 79.0 L 24.0 56.0 L 16.0 43.0 L 5.0 32.0 L 0.0 30.0 Z"/>
</svg>
